<mxfile host="app.diagrams.net" modified="2023-04-14T10:25:29.775Z" agent="Mozilla/5.0 (Windows NT 10.0; Win64; x64) AppleWebKit/537.36 (KHTML, like Gecko) Chrome/111.0.0.0 Safari/537.36" etag="0n-EK9XSizqTlZTe21LA" version="21.1.2" type="github">
  <diagram name="Page-1" id="PBxZBGcMCGzeqya2s1PQ">
    <mxGraphModel dx="1050" dy="515" grid="1" gridSize="10" guides="1" tooltips="1" connect="1" arrows="1" fold="1" page="1" pageScale="1" pageWidth="850" pageHeight="1100" math="0" shadow="0">
      <root>
        <mxCell id="0" />
        <mxCell id="1" parent="0" />
        <mxCell id="hGTfbnnzopxksVkKftP3-1" value="" style="sketch=0;aspect=fixed;pointerEvents=1;shadow=0;dashed=0;html=1;strokeColor=none;labelPosition=center;verticalLabelPosition=bottom;verticalAlign=top;align=center;fillColor=#00188D;shape=mxgraph.azure.user" vertex="1" parent="1">
          <mxGeometry x="98" y="200" width="75.2" height="80" as="geometry" />
        </mxCell>
        <mxCell id="hGTfbnnzopxksVkKftP3-2" value="" style="outlineConnect=0;dashed=0;verticalLabelPosition=bottom;verticalAlign=top;align=center;html=1;shape=mxgraph.aws3.classic_load_balancer;fillColor=#F58536;gradientColor=none;direction=south;" vertex="1" parent="1">
          <mxGeometry x="258" y="200" width="90" height="80" as="geometry" />
        </mxCell>
        <mxCell id="hGTfbnnzopxksVkKftP3-3" value="&lt;b&gt;SVC&lt;/b&gt;" style="text;html=1;align=center;verticalAlign=middle;resizable=0;points=[];autosize=1;strokeColor=none;fillColor=none;" vertex="1" parent="1">
          <mxGeometry x="278" y="280" width="50" height="30" as="geometry" />
        </mxCell>
        <mxCell id="hGTfbnnzopxksVkKftP3-4" value="&lt;b&gt;&lt;font style=&quot;font-size: 14px;&quot;&gt;client&lt;/font&gt;&lt;/b&gt;" style="text;html=1;align=center;verticalAlign=middle;resizable=0;points=[];autosize=1;strokeColor=none;fillColor=none;" vertex="1" parent="1">
          <mxGeometry x="105.6" y="280" width="60" height="30" as="geometry" />
        </mxCell>
        <mxCell id="hGTfbnnzopxksVkKftP3-6" value="" style="rounded=0;whiteSpace=wrap;html=1;" vertex="1" parent="1">
          <mxGeometry x="458" y="160" width="290" height="150" as="geometry" />
        </mxCell>
        <mxCell id="hGTfbnnzopxksVkKftP3-7" value="&lt;b&gt;&lt;font style=&quot;font-size: 15px;&quot;&gt;POD&lt;/font&gt;&lt;/b&gt;" style="text;html=1;align=center;verticalAlign=middle;resizable=0;points=[];autosize=1;strokeColor=none;fillColor=none;" vertex="1" parent="1">
          <mxGeometry x="573" y="330" width="60" height="30" as="geometry" />
        </mxCell>
        <mxCell id="hGTfbnnzopxksVkKftP3-8" value="" style="outlineConnect=0;dashed=0;verticalLabelPosition=bottom;verticalAlign=top;align=center;html=1;shape=mxgraph.aws3.ec2_compute_container;fillColor=#F58534;gradientColor=none;" vertex="1" parent="1">
          <mxGeometry x="478" y="190" width="100" height="44.5" as="geometry" />
        </mxCell>
        <mxCell id="hGTfbnnzopxksVkKftP3-9" value="" style="outlineConnect=0;dashed=0;verticalLabelPosition=bottom;verticalAlign=top;align=center;html=1;shape=mxgraph.aws3.ec2_compute_container;fillColor=#F58534;gradientColor=none;" vertex="1" parent="1">
          <mxGeometry x="618" y="190" width="100" height="44.5" as="geometry" />
        </mxCell>
        <mxCell id="hGTfbnnzopxksVkKftP3-10" value="Application Container" style="text;html=1;align=center;verticalAlign=middle;resizable=0;points=[];autosize=1;strokeColor=none;fillColor=none;fontStyle=1" vertex="1" parent="1">
          <mxGeometry x="452" y="160" width="150" height="30" as="geometry" />
        </mxCell>
        <mxCell id="hGTfbnnzopxksVkKftP3-11" value="Sidecar Container" style="text;html=1;align=center;verticalAlign=middle;resizable=0;points=[];autosize=1;strokeColor=none;fillColor=none;fontStyle=1" vertex="1" parent="1">
          <mxGeometry x="601" y="160" width="130" height="30" as="geometry" />
        </mxCell>
        <mxCell id="hGTfbnnzopxksVkKftP3-12" value="" style="rounded=0;whiteSpace=wrap;html=1;" vertex="1" parent="1">
          <mxGeometry x="558" y="270" width="85" height="30" as="geometry" />
        </mxCell>
        <mxCell id="hGTfbnnzopxksVkKftP3-13" value="Localhost" style="text;html=1;align=center;verticalAlign=middle;resizable=0;points=[];autosize=1;strokeColor=none;fillColor=none;fontStyle=1" vertex="1" parent="1">
          <mxGeometry x="563" y="270" width="80" height="30" as="geometry" />
        </mxCell>
        <mxCell id="hGTfbnnzopxksVkKftP3-14" value="" style="endArrow=classic;html=1;rounded=0;entryX=0.007;entryY=0.548;entryDx=0;entryDy=0;entryPerimeter=0;" edge="1" parent="1" target="hGTfbnnzopxksVkKftP3-6">
          <mxGeometry width="50" height="50" relative="1" as="geometry">
            <mxPoint x="348" y="240" as="sourcePoint" />
            <mxPoint x="398" y="190" as="targetPoint" />
          </mxGeometry>
        </mxCell>
        <mxCell id="hGTfbnnzopxksVkKftP3-15" value="" style="edgeStyle=none;orthogonalLoop=1;jettySize=auto;html=1;rounded=0;" edge="1" parent="1">
          <mxGeometry width="100" relative="1" as="geometry">
            <mxPoint x="158" y="239.5" as="sourcePoint" />
            <mxPoint x="258" y="239.5" as="targetPoint" />
            <Array as="points" />
          </mxGeometry>
        </mxCell>
        <mxCell id="hGTfbnnzopxksVkKftP3-16" value="" style="endArrow=none;dashed=1;html=1;rounded=0;strokeWidth=2;strokeColor=#000000;" edge="1" parent="1" target="hGTfbnnzopxksVkKftP3-9">
          <mxGeometry width="50" height="50" relative="1" as="geometry">
            <mxPoint x="618" y="270" as="sourcePoint" />
            <mxPoint x="668" y="220" as="targetPoint" />
          </mxGeometry>
        </mxCell>
        <mxCell id="hGTfbnnzopxksVkKftP3-18" value="" style="endArrow=none;dashed=1;html=1;rounded=0;entryX=0.313;entryY=-0.073;entryDx=0;entryDy=0;entryPerimeter=0;strokeWidth=2;strokeColor=#000000;" edge="1" parent="1" source="hGTfbnnzopxksVkKftP3-8" target="hGTfbnnzopxksVkKftP3-13">
          <mxGeometry width="50" height="50" relative="1" as="geometry">
            <mxPoint x="358" y="290" as="sourcePoint" />
            <mxPoint x="408" y="240" as="targetPoint" />
          </mxGeometry>
        </mxCell>
      </root>
    </mxGraphModel>
  </diagram>
</mxfile>
